<svg width="84" height="56" viewBox="0 0 84 56" fill="none" xmlns="http://www.w3.org/2000/svg">
<g clip-path="url(#clip0_1302_3263)">
<path d="M65.1314 8.06636C62.8609 9.06668 61.104 3.81755 58.6724 3.94769C55.9539 4.11101 52.7243 10.4268 51.287 8.22967C54.5166 13.5732 57.1344 11.2715 58.7076 9.78119C62.2518 13.3487 65.806 10.1691 65.1339 8.06636H65.1314Z" fill="#FFD000"/>
<path d="M42.7187 1.2504C44.9338 1.2504 46.7436 3.08772 46.7436 5.33078C46.7436 7.57384 44.9312 9.41116 42.7187 9.41116C40.5061 9.41116 38.6937 7.57384 38.6937 5.33078C38.6937 3.08772 40.5061 1.2504 42.7187 1.2504Z" fill="#FFD000"/>
<path d="M39.1317 13.1574C39.1191 13.1497 39.1116 13.1446 39.099 13.137C39.0864 13.1574 39.0713 13.1778 39.0512 13.2059C38.8372 13.5657 38.2054 14.173 37.3999 14.7931C36.4006 15.5612 35.1294 16.3446 34.0697 16.6661C32.869 13.4457 29.8585 11.4374 26.0047 13.507C21.4386 15.9108 21.6727 23.7041 28.2148 25.6435C28.5169 37.017 28.8391 45.0502 26.0047 45.2824C19.9157 45.7647 19.4123 11.9886 14.8185 3.79469C11.6368 -1.84486 3.31761 -0.910891 0 4.70314C7.89632 7.07125 5.54529 57.8783 23.7166 55.9465C34.9759 54.7829 35.2175 38.3031 35.3736 26.0365C36.2596 25.9012 37.0853 25.6614 37.8303 25.3424C43.1138 23.0815 44.7399 16.7861 39.1317 13.1574Z" fill="#FFD000"/>
<path d="M43.3429 12.504C41.7043 12.1365 40.267 12.4632 39.1317 13.1573C39.104 13.17 39.0789 13.1904 39.0512 13.2057C38.3791 13.6268 37.8228 14.178 37.3999 14.793C36.3931 16.2424 36.1237 18.0389 36.8965 19.2995C38.0519 19.2995 38.9102 17.6255 37.8304 25.3448C37.7976 25.5694 37.7624 25.8067 37.7297 26.0517C35.8494 39.5636 48.3395 38.4459 50.0033 32.2322C41.7924 34.7177 50.5546 14.0989 43.3429 12.5065V12.504Z" fill="#FFD000"/>
<path d="M65.7809 25.7506C65.5468 27.0775 61.839 28.9965 59.858 29.0654C58.7983 29.0986 56.8374 28.9837 56.3667 28.2003C69.252 27.7435 69.5062 13.4966 60.1122 13.4966C46.0866 13.4966 44.823 35.5113 59.1658 35.5113C68.001 35.5113 69.7001 28.4785 65.7783 25.7506H65.7809ZM60.885 19.6313C62.0932 19.9502 61.5218 23.8035 55.098 24.0765C55.0905 21.489 58.388 18.978 60.885 19.6313Z" fill="#FFD000"/>
<path d="M78.9078 19.6032C82.2707 20.5703 85.7091 17.3372 82.8823 13.4558C82.024 15.6759 80.8133 13.5375 77.8858 13.8514C77.4956 13.8922 77.1483 14.007 76.8311 14.1703C77.2213 11.7946 76.5215 9.77353 74.8426 8.6303C72.2247 6.76491 68.605 7.98979 67.9053 11.3939C75.4467 12.2922 62.1032 33.7557 74.7217 35.7027C83.5242 37.0577 85.1428 25.6077 79.4087 24.8931C80.1613 26.5008 79.0185 28.1467 77.6567 27.9502C76.1716 27.7537 75.7563 23.7244 76.227 18.6998C76.5366 18.7407 77.7171 19.2638 78.9052 19.6057L78.9078 19.6032Z" fill="#FFD000"/>
<path d="M46.2703 50.3247L46.2175 47.3901C46.2099 46.9537 45.996 46.7445 45.5655 46.7496L41.2738 46.8236C40.871 46.8364 40.6369 47.0558 40.642 47.4896L40.6747 49.2249C40.6822 49.6408 40.9239 49.8705 41.3317 49.8654L42.5726 49.845C42.5928 50.9065 42.4996 51.9349 40.9138 51.963C39.328 51.9911 39.2022 50.9703 39.1745 49.3014L39.1216 46.1703C39.0889 44.4963 39.1745 43.4756 40.7678 43.4475C41.9836 43.4271 42.3587 44.0268 42.4669 45.0679C42.5147 45.5247 42.7564 45.7136 43.1843 45.6191L45.5957 45.0348C45.9783 44.9403 46.1671 44.6954 46.1394 44.3075C45.9985 42.6131 45.2005 39.63 40.6999 39.7116C35.6177 39.8061 35.3887 43.6517 35.4163 45.0884L35.5095 50.5212C35.5372 51.9502 35.9047 55.7907 40.9818 55.7014C46.0589 55.607 46.293 51.7537 46.2653 50.3247H46.2703Z" fill="#008AE3"/>
<path d="M54.8312 42.9601V49.2708C54.8312 50.9448 54.723 51.9656 53.1321 51.9656C51.5413 51.9656 51.4406 50.9448 51.4406 49.2708V40.7554C51.4406 40.319 51.2267 40.1021 50.8038 40.1021H48.3999C47.9896 40.1021 47.7555 40.319 47.7555 40.7554V50.4217C47.7555 51.8584 48.0576 55.704 53.1347 55.704C58.2118 55.704 58.5188 51.8584 58.5188 50.4217V45.4865C56.8877 45.3971 55.4907 44.3841 54.8337 42.9601H54.8312ZM57.8719 40.1021H55.6493C55.5562 40.416 55.5008 40.7426 55.5008 41.082C55.5008 42.8121 56.8374 44.2463 58.5163 44.3764V40.7554C58.5163 40.319 58.3024 40.1021 57.8719 40.1021Z" fill="#008AE3"/>
<path d="M61.8742 40.0995H60.968C60.5854 40.0995 60.3035 40.3853 60.3035 40.7732V43.9936C61.3229 43.4348 62.0227 42.3324 62.0227 41.0794C62.0227 40.74 61.9698 40.4134 61.8742 40.0995ZM71.5979 54.1346L69.3275 49.8526C69.2872 49.7429 69.3073 49.6357 69.3954 49.5745C70.5307 48.7451 71.0215 47.334 71.0215 45.3129C71.0215 41.7531 69.476 40.0995 65.6625 40.0995H63.017C63.0849 40.4134 63.1252 40.7451 63.1252 41.0794C63.1252 42.9576 61.9497 44.578 60.306 45.2108V54.6322C60.306 55.0277 60.5879 55.3059 60.9705 55.3059H63.3744C63.757 55.3059 64.0389 55.0277 64.0389 54.6322V51.2025C64.0389 50.8147 64.3133 50.5289 64.7035 50.5289H65.5568C65.6247 50.5289 65.6851 50.5774 65.7305 50.6386L67.9606 55.0099C68.0488 55.2013 68.235 55.3085 68.4515 55.3085H70.8957C71.5602 55.3085 71.9025 54.7037 71.6005 54.1372L71.5979 54.1346ZM65.7909 46.7904H64.7035C64.3133 46.7904 64.0389 46.5123 64.0389 46.1167V44.5091C64.0389 44.1212 64.3133 43.8354 64.7035 43.8354H65.7909C66.8254 43.8354 67.3364 43.9655 67.3364 45.3129C67.3364 46.6603 66.8254 46.7904 65.7909 46.7904Z" fill="#008AE3"/>
<path d="M83.7911 49.0845L81.576 39.6836C81.4829 39.2549 81.2211 39.0992 80.8032 39.2013L78.4673 39.7652C78.0721 39.8597 77.8959 40.125 77.9916 40.5487L79.9449 48.8319C80.3275 50.46 80.4609 51.4807 78.9179 51.8533C77.3723 52.2207 77.0376 51.2536 76.655 49.6281L74.7016 41.3448C74.601 40.9238 74.3467 40.7656 73.9289 40.8625L71.593 41.4265C71.1978 41.5209 71.0165 41.7939 71.1172 42.215L73.3323 51.616C73.6621 53.0118 74.8376 56.6813 79.7712 55.482C84.7124 54.2903 84.1234 50.4778 83.7936 49.0845H83.7911Z" fill="#008AE3"/>
<path d="M62.0227 41.0794C62.0227 42.3324 61.3254 43.4348 60.3035 43.9936C59.8403 44.2463 59.3167 44.3892 58.7655 44.3892C58.6774 44.3892 58.5968 44.3892 58.5163 44.3764C56.8373 44.2463 55.5007 42.8096 55.5007 41.082C55.5007 40.7426 55.5536 40.4159 55.6492 40.1021C56.0646 38.7598 57.3081 37.7799 58.7655 37.7799C60.2229 37.7799 61.4639 38.7598 61.8742 40.1021C61.9673 40.4159 62.0227 40.7426 62.0227 41.082V41.0794Z" fill="white"/>
<path d="M62.0227 41.0794C62.0227 42.3324 61.3254 43.4348 60.3035 43.9936C59.8403 44.2463 59.3167 44.3892 58.7655 44.3892C58.6774 44.3892 58.5968 44.3892 58.5163 44.3764C56.8373 44.2463 55.5007 42.8096 55.5007 41.082C55.5007 40.7426 55.5536 40.4159 55.6492 40.1021C56.0646 38.7598 57.3081 37.7799 58.7655 37.7799C60.2229 37.7799 61.4639 38.7598 61.8742 40.1021C61.9673 40.4159 62.0227 40.7426 62.0227 41.082V41.0794Z" fill="#FFD000"/>
</g>
<defs>
<clipPath id="clip0_1302_3263">
<rect width="84" height="56" fill="white"/>
</clipPath>
</defs>
</svg>
